<svg width="137" height="25" viewBox="0 0 137 25" fill="none" xmlns="http://www.w3.org/2000/svg">
<path fill-rule="evenodd" clip-rule="evenodd" d="M13.3008 3.22736C18.4406 3.22736 22.6116 7.4064 22.6116 12.5381C22.6116 17.6699 18.4406 21.8569 13.3008 21.8569C8.16109 21.8569 3.99006 17.6779 3.99006 12.5461C3.99006 7.41441 8.1691 3.22736 13.3008 3.22736ZM13.3008 0.161133C6.46386 0.161133 0.923828 5.70116 0.923828 12.5381C0.923828 19.3751 6.46386 24.9151 13.3008 24.9151C20.1378 24.9151 25.6778 19.3751 25.6778 12.5381C25.6778 5.70116 20.1378 0.161133 13.3008 0.161133ZM78.2307 12.5381C78.2307 7.4064 74.0597 3.22736 68.92 3.22736C63.7882 3.22736 59.6092 7.41441 59.6092 12.5461C59.6092 17.6779 63.7802 21.8569 68.92 21.8569C74.0597 21.8569 78.2307 17.6699 78.2307 12.5381ZM56.543 12.5381C56.543 5.70116 62.083 0.161133 68.92 0.161133C75.7569 0.161133 81.297 5.70116 81.297 12.5381C81.297 19.3751 75.7569 24.9151 68.92 24.9151C62.083 24.9151 56.543 19.3751 56.543 12.5381ZM50.351 0.477539V11.0744H31.8592V0.477539H28.7812V24.6474H31.8592V14.0741H50.351V24.6474H53.437V0.477539H50.351ZM105.978 0.477539V11.0744H87.4863V0.477539H84.4004V24.6474H87.4863V14.0741H105.978V24.6474H109.064V0.477539H105.978ZM133.858 12.5381C133.858 7.4064 129.687 3.22736 124.547 3.22736C119.415 3.22736 115.236 7.41441 115.236 12.5461C115.236 17.6779 119.407 21.8569 124.547 21.8569C129.687 21.8569 133.858 17.6699 133.858 12.5381ZM112.17 12.5381C112.17 5.70116 117.71 0.161133 124.547 0.161133C131.384 0.161133 136.924 5.70116 136.924 12.5381C136.924 19.3751 131.384 24.9151 124.547 24.9151C117.71 24.9151 112.17 19.3751 112.17 12.5381Z" fill="#1E1E1C"/>
</svg>
